<?xml version="1.0"?>
<svg id="Capa_1" data-name="Capa 1" xmlns="http://www.w3.org/2000/svg" viewBox="0 0 1024 1024">
  <defs>
    
  </defs>
  <rect width="1024" height="1024" rx="115.19" ry="115.19" fill="#FFFFFF"></rect>
  <g>
    <path fill="#22A13A" d="M252.67,474.1c-.75-6.15.34-12.45,4.94-15.18,3.1-1.84,9.94-3.19,14.11-.65,81.05,49.41,181.93,44.79,258.67-10.7,65.15-47.11,151.42-53.76,222.58-15.74,14.06,7.51,19.86,23.31,18.33,37.98-13.73,132.48-124.98,232.09-256.3,233.68-132.08,1.6-246.04-96.22-262.34-229.39ZM615.57,547.19c-26.65,20.41-54.08,36.87-85.12,47.68-53.45,18.61-108.89,15.15-159.27-10.17-29.62-14.89-53.09-34.82-79.49-59.21,38.25,104.45,145.71,166.17,254.58,150.19,106.39-15.62,190.77-102.87,200-211.94.35-4.12-3.71-8.97-7.16-10.73-63.7-32.65-138.37-25.25-195.89,16.22-67.94,48.98-152.85,61.43-234.24,34.8,20.31,24.46,45.07,43.11,72.33,57.18,58.47,30.16,117.8,25.16,174.68-5.13,16.72-8.91,31.18-19.4,46.22-30.44,6.06-4.45,14.15-2.16,17.71,3.29,4.08,6.24,2.19,13.26-4.35,18.27Z"></path>
    <path fill="#E8B434" d="M537.47,418.87c-78.31,57.02-181.36,63.25-265.39,16.54-13.27-7.38-19.7-22.08-17.56-36.41,18.99-126.9,127.76-219.9,254.33-221.57,127.27-1.68,238.08,88.63,260.65,215.38.75,4.22-.68,10.07-4.11,12.84-2.83,2.28-9.68,4.27-13.78,1.85-67.67-39.91-150.31-35.11-214.14,11.37ZM501.26,293.71c-30.02,10.13-55.29,25.82-79.66,44.68-6.66,5.16-15.4,4.39-19.81-2.74-3.83-6.2-1.14-13.44,5.01-18.1,26.29-19.92,53.67-36.52,84.77-47.34,52.84-18.38,107.57-15.26,157.6,9.3,26.66,13.09,48.15,30.91,72.29,50.77-47.54-93.53-150.86-142.41-252.75-123.48-96.35,17.89-173.89,95.77-189,195.06-.7,4.59,1.02,9.33,5.28,11.7,76.6,42.48,168.89,35.05,239.26-16.13,54.85-39.9,121.76-52.25,190.71-33.76-20.17-26.01-46.67-45.33-74.7-60.04-43.69-22.93-91.75-25.87-139.02-9.93Z"></path>
    <path fill="#0A0A0A" d="M582.49,721.4c39.78-7.42,48.12-27.23,58.22-13.41,14.11,19.31-34.24,33.1-47.34,35.78-53.04,10.88-107.57,11.29-160.68.9-13.42-2.63-64.09-17.08-49.54-36.63,5.01-6.73,12.55-5.44,19.06-.9,10.88,7.58,23.99,11.72,37.63,14.34,47.25,9.07,95.29,8.75,142.65-.09Z"></path>
    <path fill="#0A0A0A" d="M432.77,793.62c-7.78-1.15-11.19-7.01-11.04-12.55.17-6.14,5.62-12.53,13.06-11.42,51.09,7.64,102.01,7.1,152.96-.82,6.86-1.06,12.36,2.78,14.12,8.83,1.44,4.93-1.3,13.33-8.51,14.54-53,8.9-106.45,9.45-160.59,1.42Z"></path>
    <path fill="#0A0A0A" d="M530.51,846.37c-13.99.33-27.15.31-40.24-.3-14.79-.69-28.61-15.62-27.23-22.23.36-1.71,4.29-3.54,6.25-3.38,28.82,2.32,56.49,2.32,85.38-.09,1.54-.13,4.89,1.29,5.71,2.49,3.36,4.86-9.79,23.04-29.87,23.52Z"></path>
  </g>
</svg>