<?xml version="1.0"?>
<svg xmlns="http://www.w3.org/2000/svg" viewBox="0 0 1920 887.22">
  
  
  <g id="Capa_1" data-name="Capa 1">
    <g>
      <g>
        <path fill="#000000" d="M754,635.1h10.21v52.95h-10.21v-52.95Z"></path>
        <path fill="#000000" d="M1073.95,368.48v8.21c0,42.66-7.54,78.06-22.71,106.4-15.17,28.25-35.88,49.43-62.12,63.36-26.24,13.93-56.21,20.99-89.99,20.99-24.53,0-47.71-4.77-69.57-14.31-21.76-9.54-40.84-22.81-57.26-39.7-16.32-16.79-29.2-36.45-38.55-58.78-9.45-22.33-14.12-46.28-14.12-71.86s4.68-49.34,14.12-71.57c9.35-22.14,22.33-41.61,38.84-58.5,16.51-16.89,35.98-29.96,58.31-39.41,22.33-9.35,46.47-14.03,72.33-14.03,28.25,0,54.49,5.44,78.73,16.32,24.24,10.97,44.47,26.43,60.88,46.57l-39.89,39.89c-10.59-14.98-24.72-26.53-42.46-34.54-17.75-8.02-36.84-12.02-57.26-12.02-24.53,0-46.09,5.34-64.7,16.13-18.61,10.69-32.92,25.67-43.23,44.75-10.21,19.09-15.27,41.22-15.27,66.42s5.15,47.52,15.55,66.8c10.4,19.18,24.43,34.35,42.18,45.23,17.75,10.88,37.88,16.32,60.31,16.32,23.86,0,44.47-4.29,61.64-12.98,17.18-8.78,30.44-21.66,39.6-38.93,5.82-10.78,9.73-23.09,11.93-37.03h-114.13v-53.73h176.83Z"></path>
        <polygon fill="#000000" points="1763.02 204.06 1763.02 562.67 1704.05 562.67 1704.05 341.19 1605.57 562.67 1564.63 562.67 1468.45 341.76 1468.45 562.67 1409.47 562.67 1409.47 204.06 1469.78 204.34 1585.92 475.07 1702.53 204.06 1763.02 204.06"></polygon>
        <path fill="#000000" d="M849.42,635.1v52.95h-8.38l-30.28-35.85v35.85h-10.12v-52.95h8.39l30.27,35.85v-35.85h10.12Z"></path>
        <path fill="#000000" d="M895.97,643.35v16.11h26.51v8.32h-26.51v20.27h-10.19v-52.95h40.07v8.25h-29.88Z"></path>
        <path fill="#000000" d="M957.34,635.1h10.21v52.95h-10.21v-52.95Z"></path>
        <path fill="#000000" d="M1052.77,635.1v52.95h-8.38l-30.28-35.85v35.85h-10.12v-52.95h8.39l30.27,35.85v-35.85h10.12Z"></path>
        <path fill="#000000" d="M1089.12,635.1h10.19v52.95h-10.19v-52.95Z"></path>
        <path fill="#000000" d="M1146.91,643.42h-18.2v-8.32h46.58v8.32h-18.19v44.63h-10.19v-44.63Z"></path>
        <path fill="#000000" d="M1245.76,679.8v8.25h-41.18v-52.95h40.07v8.25h-29.88v13.77h26.51v8.09h-26.51v14.6h30.98Z"></path>
        <path fill="#000000" d="M1364.46,679.8v8.25h-41.18v-52.95h40.07v8.25h-29.87v13.77h26.5v8.09h-26.5v14.6h30.97Z"></path>
        <path fill="#000000" d="M1446.21,635.1v52.95h-8.38l-30.28-35.85v35.85h-10.12v-52.95h8.39l30.27,35.85v-35.85h10.12Z"></path>
        <path fill="#000000" d="M1523.74,679.8v8.25h-41.18v-52.95h40.07v8.25h-29.87v13.77h26.5v8.09h-26.5v14.6h30.97Z"></path>
        <path fill="#000000" d="M1592.65,688.05l-11.22-15.51c-.7.08-1.41.08-2.11.08h-12.4v15.43h-10.19v-52.95h22.59c14.43,0,23.37,7.12,23.37,18.84,0,8.02-4.24,13.92-11.69,16.71l12.63,17.4h-10.98ZM1578.85,643.42h-11.93v21.1h11.93c8.94,0,13.57-3.94,13.57-10.59s-4.63-10.51-13.57-10.51Z"></path>
        <path fill="#000000" d="M1673.16,660.96h9.65v21.11c-5.72,4.46-13.73,6.73-21.48,6.73-17.02,0-29.57-11.42-29.57-27.23s12.54-27.24,29.72-27.24c9.17,0,16.86,2.95,22.03,8.63l-6.43,6.05c-4.31-4.16-9.26-6.05-15.13-6.05-11.69,0-19.92,7.63-19.92,18.61s8.23,18.6,19.84,18.6c3.91,0,7.76-.75,11.29-2.72v-16.5Z"></path>
        <path fill="#000000" d="M1741.51,669.36v18.69h-10.19v-18.54l-21.56-34.42h10.9l16.07,25.79,16.23-25.79h10.04l-21.48,34.27Z"></path>
        <path fill="#000000" d="M1319.2,510.09c4.77-4.77,9.25-9.73,13.65-14.89,11.26-13.36,21.76-26.81,31.58-40.37l-31.01-21.47c-9.07,12.69-18.42,24.81-28.25,36.36-3.63,4.29-7.25,8.3-11.07,12.21l-60.02-67.28c6.87-4.2,12.98-8.49,18.61-12.79,7.63-5.73,14.12-11.74,19.47-17.84,5.25-6.11,9.35-12.5,12.12-19.09,2.77-6.68,4.2-13.84,4.2-21.47,0-11.16-2.86-21.57-8.59-31.3-5.73-9.64-13.93-17.56-24.62-23.67-10.78-6.01-23.86-9.07-39.22-9.07s-27.87,2.77-39.13,8.3c-11.36,5.63-20.04,13.26-26.34,23.09-6.2,9.83-9.35,20.8-9.35,33.02,0,9.83,2.39,18.8,6.97,27.01,4.68,8.21,10.21,15.75,16.51,22.52,4.58,4.87,8.78,9.45,12.6,13.74-6.97,3.15-14.03,6.87-21.28,10.88-8.3,4.68-15.84,10.31-22.9,16.89-7.06,6.68-12.79,14.41-17.27,23.28-4.58,8.97-6.77,19.28-6.77,31.3,0,16.13,4.29,30.06,12.88,41.7,8.68,11.74,19.94,20.61,34.07,26.91,14.03,6.2,29.11,9.35,45.33,9.35,18.51,0,35.69-3.34,51.34-10.02,13.74-5.82,26.53-13.17,38.36-22.23l24.81,27.86h50.58l-47.24-52.96ZM1192.76,323.72c5.44-5.63,13.17-8.49,23.28-8.49,6.68,0,12.21,1.34,16.7,4.1,4.48,2.86,8.01,6.49,10.59,10.97,2.48,4.49,3.72,9.73,3.72,15.55,0,8.21-4.11,16.8-12.31,25.67-5.82,6.3-13.46,12.41-22.71,18.23-6.11-7.06-11.74-13.55-16.89-19.47-6.97-8.11-10.5-16.32-10.5-24.81s2.67-16.03,8.11-21.76ZM1241.52,521.64c-11.45,5.34-23.19,8.02-35.4,8.02-10.12,0-18.99-1.81-26.62-5.44-7.73-3.53-13.84-8.68-18.32-15.27-4.49-6.68-6.77-14.22-6.77-22.71,0-9.26,2.29-17.18,6.97-23.67,4.68-6.49,10.69-12.12,18.13-16.89,6.68-4.39,13.84-8.4,21.38-12.02l65.18,73.38c-8.02,5.82-16.13,10.78-24.53,14.6Z"></path>
      </g>
      <g>
        <path fill="#00B127" d="M156.02,411.5c-.65-5.28.29-10.69,4.24-13.03,2.66-1.58,8.53-2.73,12.11-.56,69.58,42.41,156.16,38.44,222.04-9.19,55.93-40.44,129.97-46.15,191.06-13.51,12.07,6.45,17.04,20,15.74,32.6-11.79,113.72-107.28,199.22-220,200.59-113.38,1.37-211.2-82.59-225.19-196.91ZM467.53,474.25c-22.88,17.52-46.42,31.65-73.07,40.93-45.88,15.97-93.47,13.01-136.72-8.73-25.43-12.78-45.57-29.89-68.24-50.83,32.83,89.66,125.08,142.64,218.53,128.92,91.32-13.41,163.76-88.3,171.68-181.93.3-3.53-3.19-7.7-6.15-9.21-54.68-28.02-118.78-21.67-168.15,13.92-58.32,42.04-131.21,52.73-201.07,29.87,17.43,20.99,38.69,37.01,62.09,49.08,50.19,25.89,101.11,21.6,149.94-4.41,14.35-7.64,26.77-16.66,39.68-26.13,5.2-3.82,12.15-1.85,15.2,2.83,3.5,5.36,1.88,11.38-3.73,15.68Z"></path>
        <path fill="#FFBA03" d="M400.49,364.1c-67.22,48.95-155.68,54.29-227.81,14.19-11.39-6.33-16.91-18.96-15.07-31.25,16.3-108.93,109.67-188.76,218.31-190.19,109.25-1.44,204.37,76.08,223.74,184.88.64,3.62-.58,8.64-3.53,11.02-2.43,1.96-8.31,3.66-11.83,1.59-58.09-34.26-129.03-30.14-183.81,9.76ZM369.41,256.66c-25.77,8.69-47.46,22.16-68.38,38.36-5.72,4.43-13.22,3.77-17-2.35-3.29-5.32-.98-11.53,4.3-15.54,22.57-17.1,46.07-31.35,72.77-40.63,45.36-15.78,92.33-13.1,135.28,7.98,22.88,11.23,41.33,26.53,62.06,43.58-40.81-80.29-129.5-122.24-216.96-106-82.7,15.36-149.27,82.21-162.24,167.44-.6,3.94.87,8.01,4.53,10.04,65.75,36.46,144.98,30.09,205.38-13.85,47.09-34.25,104.52-44.85,163.71-28.98-17.31-22.33-40.06-38.91-64.12-51.54-37.5-19.68-78.75-22.21-119.33-8.52Z"></path>
        <path fill="#000000" d="M439.13,623.79c34.14-6.37,41.3-23.38,49.97-11.51,12.11,16.58-29.39,28.41-40.63,30.72-45.53,9.34-92.34,9.69-137.93.78-11.52-2.25-55.01-14.67-42.53-31.44,4.3-5.78,10.77-4.67,16.36-.77,9.34,6.5,20.59,10.06,32.3,12.31,40.56,7.79,81.8,7.51,122.45-.08Z"></path>
        <path fill="#000000" d="M310.61,685.78c-6.68-.99-9.6-6.02-9.48-10.78.14-5.27,4.82-10.76,11.21-9.8,43.86,6.56,87.56,6.09,131.3-.7,5.88-.91,10.61,2.39,12.12,7.58,1.24,4.23-1.12,11.44-7.3,12.48-45.49,7.64-91.38,8.11-137.85,1.22Z"></path>
        <path fill="#000000" d="M394.51,731.06c-12.01.29-23.3.27-34.54-.26-12.7-.59-24.56-13.41-23.38-19.08.31-1.47,3.69-3.04,5.36-2.9,24.74,1.99,48.49,1.99,73.29-.08,1.33-.11,4.2,1.11,4.91,2.13,2.88,4.17-8.4,19.78-25.64,20.19Z"></path>
      </g>
    </g>
  </g>
</svg>