<?xml version="1.0"?>
<svg id="Capa_1" data-name="Capa 1" xmlns="http://www.w3.org/2000/svg" viewBox="0 0 756.85 887.22">
  <defs>
    
  </defs>
  <path class="cls-3" d="M473.68,611.99c4.48-3.63,10.1-4.04,13.75.33,3.35,4.01,2.34,9.9-2.12,13.14-6.12,4.45-12.55,7.77-19.81,10.3-40.6,14.15-97.97,14.59-140.29,8.63-18.41-2.6-39.14-7.98-53.96-19.15-4.32-3.26-5.09-9.11-1.74-13.04,3.66-4.29,9.41-3.8,13.65-.09,11.08,9.69,40.94,14.7,55.88,16.36,30.23,3.36,60.42,2.63,90.49-1.9,12.19-1.84,34.58-6.82,44.16-14.58Z"></path>
  <path class="cls-3" d="M446.83,682.84c-43.19,6.96-94.08,8.11-137.35.64-5.07-.87-7.89-6.25-6.75-10.59,1.39-5.29,5.87-7.25,11.25-6.42,43.28,6.71,87.08,5.76,130.41-.94,5.11-.79,9.11,2.81,9.82,7.4.68,4.39-2.22,9.09-7.38,9.92Z"></path>
  <path class="cls-3" d="M418.98,716.04c-5.65,9.36-14.24,14.01-24.85,14.37-11.61.39-23.09.79-34.68-.29-9.33-.87-16.63-5.93-21.35-13.64-1.07-1.75-2.63-3.21-1.54-5.18.77-1.39,2.59-3.07,4.89-2.85,24.81,2.35,49.38,2.31,74.14-.1,2-.19,3.54,1.47,4.38,2.37,1.27,1.37-.05,3.76-.99,5.33Z"></path>
  <path class="cls-2" d="M598.1,340.37c-19.04-108.57-114.84-186.07-223.58-183.92-108,2.06-201.15,82.69-215.99,191.51-1.57,11.95,5.77,23.41,16.32,29.1,68.34,37.18,151.69,33.88,216.41-9.4l13.68-9.15c53.59-35.86,121.93-39.65,177.58-7.5,3.87,2.23,8.24,2.56,11.87.08,3.87-2.72,4.37-6.93,3.71-10.72ZM285.57,291.73c3.3,4.2,9.32,5.03,13.77,1.57,32.15-24.65,64.47-42.54,105.6-47.07,38.83-4.29,76.09,8.41,107.5,30.5,16.65,11.79,31.82,25.14,45.34,41.71-55.81-17.81-114.18-9.23-161.91,22.67l-18.3,12.2c-57.63,38.5-132.65,39.74-193.41,6.6-4.2-2.31-6.84-6.02-6.18-10.72,12.61-87.63,81.95-156.64,167.68-170.57,89.45-14.67,178.98,31.25,217.56,115.5-17.81-16.41-34.21-31.33-54.57-42.95-33.72-19.37-69.66-28.85-108.74-23.99-43.12,5.44-78.81,24.57-112.53,50.87-4.53,3.46-5.03,9.56-1.81,13.68Z"></path>
  <path class="cls-1" d="M583.26,374.42c-60.51-31.33-133.14-25.72-188.05,14.1-65.62,47.65-152.18,52.43-222.18,10.14-3.54-2.14-8.08-2.72-11.87-.25-3.55,2.39-4.7,6.18-4.12,10.96,3.3,27.37,11.21,53.75,24.07,78.15,48.97,92.5,154.66,138.75,255.48,111.38,89.37-24.24,155.32-102.31,163.23-194.48,1.07-12.61-5.69-24.32-16.57-30.01ZM446.99,575.24c-40.31,14.43-84.75,15.91-126.13,3.71-63.4-18.71-114.51-67.6-135.37-131,14.18,14.51,27.53,27.53,43.28,38.83,19.12,13.6,39.41,23.99,62,30.59,20.44,5.52,41.14,7.58,62.24,5.19,43.94-5.11,81.04-24.4,115.25-51.44,4.45-3.54,4.37-9.81,1.15-13.6-3.63-4.29-9.4-4.62-13.85-1.15-31.91,24.73-65.29,42.7-106.1,46.99-59.52,6.18-112.69-27.04-150.87-70.57,69.75,26.22,146.58,15.75,206.51-27.62,49.22-35.61,113.52-41.88,168.18-14.01,4.78,2.47,7.67,6.68,7.17,12.53-7.42,78.07-59.77,144.93-133.47,171.56Z"></path>
</svg>