<?xml version="1.0"?>
<svg xmlns="http://www.w3.org/2000/svg" viewBox="0 0 300 740" preserveAspectRatio="xMidYMid meet">
  <path d="M 173 8 L 178 9 L 184 12 L 188 16 L 192 22 L 195 28 L 197 35 L 199 42 L 201 49 L 204 56 L 208 62 L 213 67 L 219 71 L 225 74 L 232 76 L 238 79 L 243 83 L 247 88 L 250 94 L 251 101 L 250 108 L 247 114 L 243 119 L 239 124 L 236 130 L 234 137 L 234 144 L 235 151 L 237 158 L 240 165 L 243 172 L 245 180 L 246 188 L 246 196 L 244 204 L 241 212 L 238 220 L 234 228 L 231 236 L 229 244 L 228 252 L 228 260 L 230 268 L 232 276 L 234 284 L 236 292 L 237 300 L 237 308 L 236 316 L 234 324 L 231 332 L 228 340 L 224 348 L 220 356 L 217 364 L 214 372 L 212 380 L 210 388 L 209 396 L 209 404 L 209 412 L 209 420 L 207 428 L 205 436 L 202 444 L 199 452 L 195 460 L 191 468 L 187 476 L 183 484 L 179 492 L 175 500 L 171 508 L 167 516 L 163 524 L 159 532 L 155 540 L 151 548 L 147 556 L 143 564 L 139 572 L 135 580 L 131 588 L 127 596 L 123 604 L 119 612 L 115 620 L 111 628 L 107 636 L 103 644 L 99 651 L 95 658 L 91 665 L 87 672 L 83 678 L 80 684 L 78 690 L 77 696 L 78 701 L 80 705 L 84 708 L 89 710 L 95 711 L 101 711 L 106 710 L 110 707 L 112 703 L 113 699 L 112 695 L 110 691 L 108 687 L 106 683 L 105 678 L 105 673 L 107 668 L 110 663 L 113 658 L 117 653 L 121 647 L 124 641 L 128 635 L 131 628 L 134 621 L 136 614 L 138 607 L 139 600 L 139 593 L 138 586 L 136 579 L 134 572 L 131 565 L 128 558 L 125 551 L 122 544 L 119 537 L 117 530 L 116 523 L 116 516 L 117 509 L 119 502 L 122 495 L 125 488 L 128 481 L 131 474 L 133 467 L 134 460 L 134 453 L 133 446 L 131 439 L 128 432 L 125 425 L 122 418 L 119 411 L 116 404 L 113 397 L 110 390 L 107 383 L 104 376 L 102 369 L 100 362 L 99 355 L 99 348 L 100 341 L 102 334 L 104 327 L 106 320 L 108 313 L 109 306 L 109 299 L 108 292 L 106 285 L 104 278 L 101 271 L 98 264 L 95 257 L 92 250 L 89 243 L 87 236 L 85 229 L 84 222 L 84 215 L 85 208 L 87 201 L 89 194 L 91 187 L 92 180 L 92 173 L 91 166 L 89 159 L 87 152 L 85 145 L 83 138 L 81 131 L 80 124 L 80 117 L 81 110 L 83 103 L 86 97 L 90 91 L 95 86 L 101 82 L 108 79 L 116 77 L 124 76 L 132 76 L 140 78 L 148 80 L 155 83 L 162 86 L 168 89 L 174 91 L 178 92 L 181 91 L 183 89 L 184 86 L 184 82 L 183 78 L 181 73 L 179 68 L 176 63 L 173 58 L 171 53 L 169 48 L 168 43 L 168 38 L 169 33 L 171 28 L 173 23 L 174 18 L 174 13 L 173 8 Z" fill="currentColor"></path>
</svg>