<?xml version="1.0"?>
<svg id="Capa_1" data-name="Capa 1" xmlns="http://www.w3.org/2000/svg" viewBox="0 0 1920 887.22">
  <defs>
    
  </defs>
  <g>
    <path class="cls-3" d="M472.68,611.99c4.48-3.63,10.1-4.04,13.75.33,3.35,4.01,2.34,9.9-2.12,13.14-6.12,4.45-12.55,7.77-19.81,10.3-40.6,14.15-97.97,14.59-140.29,8.63-18.41-2.6-39.14-7.98-53.96-19.15-4.32-3.26-5.09-9.11-1.74-13.04,3.66-4.29,9.41-3.8,13.65-.09,11.08,9.69,40.94,14.7,55.88,16.36,30.23,3.36,60.42,2.63,90.49-1.9,12.19-1.84,34.58-6.82,44.16-14.58Z"></path>
    <path class="cls-3" d="M445.84,682.84c-43.19,6.96-94.08,8.11-137.35.64-5.07-.87-7.89-6.25-6.75-10.59,1.39-5.29,5.87-7.25,11.25-6.42,43.28,6.71,87.08,5.76,130.41-.94,5.11-.79,9.11,2.81,9.82,7.4.68,4.39-2.22,9.09-7.38,9.92Z"></path>
    <path class="cls-3" d="M417.99,716.04c-5.65,9.36-14.24,14.01-24.85,14.37-11.61.39-23.09.79-34.68-.29-9.33-.87-16.63-5.93-21.35-13.64-1.07-1.75-2.63-3.21-1.54-5.18.77-1.39,2.59-3.07,4.89-2.85,24.81,2.35,49.38,2.31,74.14-.1,2-.19,3.54,1.47,4.38,2.37,1.27,1.37-.05,3.76-.99,5.33Z"></path>
    <path class="cls-2" d="M597.11,340.37c-19.04-108.57-114.84-186.07-223.58-183.92-108,2.06-201.15,82.69-215.99,191.51-1.57,11.95,5.77,23.41,16.32,29.1,68.34,37.18,151.69,33.88,216.41-9.4l13.68-9.15c53.59-35.86,121.93-39.65,177.58-7.5,3.87,2.23,8.24,2.56,11.87.08,3.87-2.72,4.37-6.93,3.71-10.72ZM284.58,291.73c3.3,4.2,9.32,5.03,13.77,1.57,32.15-24.65,64.47-42.54,105.6-47.07,38.83-4.29,76.09,8.41,107.5,30.5,16.65,11.79,31.82,25.14,45.34,41.71-55.81-17.81-114.18-9.23-161.91,22.67l-18.3,12.2c-57.63,38.5-132.65,39.74-193.41,6.6-4.2-2.31-6.84-6.02-6.18-10.72,12.61-87.63,81.95-156.64,167.68-170.57,89.45-14.67,178.98,31.25,217.56,115.5-17.81-16.41-34.21-31.33-54.57-42.95-33.72-19.37-69.66-28.85-108.74-23.99-43.12,5.44-78.81,24.57-112.53,50.87-4.53,3.46-5.03,9.56-1.81,13.68Z"></path>
    <path class="cls-1" d="M582.27,374.42c-60.51-31.33-133.14-25.72-188.05,14.1-65.62,47.65-152.18,52.43-222.18,10.14-3.54-2.14-8.08-2.72-11.87-.25-3.55,2.39-4.7,6.18-4.12,10.96,3.3,27.37,11.21,53.75,24.07,78.15,48.97,92.5,154.66,138.75,255.48,111.38,89.37-24.24,155.32-102.31,163.23-194.48,1.07-12.61-5.69-24.32-16.57-30.01ZM445.99,575.24c-40.31,14.43-84.75,15.91-126.13,3.71-63.4-18.71-114.51-67.6-135.37-131,14.18,14.51,27.53,27.53,43.28,38.83,19.12,13.6,39.41,23.99,62,30.59,20.44,5.52,41.14,7.58,62.24,5.19,43.94-5.11,81.04-24.4,115.25-51.44,4.45-3.54,4.37-9.81,1.15-13.6-3.63-4.29-9.4-4.62-13.85-1.15-31.91,24.73-65.29,42.7-106.1,46.99-59.52,6.18-112.69-27.04-150.87-70.57,69.75,26.22,146.58,15.75,206.51-27.62,49.22-35.61,113.52-41.88,168.18-14.01,4.78,2.47,7.67,6.68,7.17,12.53-7.42,78.07-59.77,144.93-133.47,171.56Z"></path>
  </g>
  <g>
    <path class="cls-3" d="M751.87,635.27h10.24v53.12h-10.24v-53.12Z"></path>
    <path class="cls-3" d="M1072.92,367.8v8.23c0,42.79-7.66,78.31-22.88,106.74-15.22,28.34-35.99,49.59-62.32,63.56-26.33,13.98-56.39,21.06-90.27,21.06-24.6,0-47.86-4.79-69.69-14.36-21.92-9.57-41.07-22.88-57.44-39.82-16.47-16.85-29.39-36.57-38.77-58.97-9.38-22.4-14.07-46.43-14.07-72.08s4.69-49.49,14.07-71.8c9.38-22.21,22.4-41.74,38.96-58.68,16.56-16.94,36.09-30.06,58.49-39.54,22.4-9.38,46.62-14.07,72.56-14.07,28.43,0,54.75,5.46,78.98,16.37,24.31,11.01,44.61,26.52,61.07,46.72l-40.01,40.01c-10.63-15.03-24.79-26.61-42.6-34.65-17.71-8.04-36.95-12.06-57.44-12.06-24.6,0-46.24,5.36-64.91,16.18-18.57,10.72-33.03,25.75-43.27,44.9-10.34,19.15-15.41,41.36-15.41,66.63s5.17,47.67,15.6,67.01c10.44,19.24,24.6,34.46,42.31,45.38,17.81,10.91,38,16.37,60.6,16.37,23.93,0,44.52-4.31,61.75-13.02,17.33-8.81,30.54-21.73,39.73-39.06,5.84-10.82,9.76-23.17,11.97-37.14h-114.49v-53.9h177.48Z"></path>
    <polygon class="cls-3" points="1764.09 202.86 1764.09 562.61 1704.93 562.61 1704.93 340.42 1606.14 562.61 1565.07 562.61 1468.57 341 1468.57 562.61 1409.41 562.61 1409.41 202.86 1469.91 203.15 1586.41 474.73 1703.4 202.86 1764.09 202.86"></polygon>
    <path class="cls-3" d="M847.6,635.27v53.12h-8.41l-30.38-35.97v35.97h-10.15v-53.12h8.42l30.37,35.97v-35.97h10.15Z"></path>
    <path class="cls-3" d="M894.29,643.54v16.16h26.6v8.35h-26.6v20.34h-10.23v-53.12h40.2v8.27h-29.97Z"></path>
    <path class="cls-3" d="M955.86,635.27h10.24v53.12h-10.24v-53.12Z"></path>
    <path class="cls-3" d="M1051.59,635.27v53.12h-8.41l-30.38-35.97v35.97h-10.15v-53.12h8.42l30.37,35.97v-35.97h10.15Z"></path>
    <path class="cls-3" d="M1088.06,635.27h10.23v53.12h-10.23v-53.12Z"></path>
    <path class="cls-3" d="M1146.03,643.62h-18.26v-8.35h46.73v8.35h-18.24v44.77h-10.23v-44.77Z"></path>
    <path class="cls-3" d="M1245.2,680.11v8.27h-41.31v-53.12h40.2v8.27h-29.97v13.81h26.6v8.11h-26.6v14.65h31.08Z"></path>
    <path class="cls-3" d="M1364.27,680.11v8.27h-41.31v-53.12h40.2v8.27h-29.96v13.81h26.59v8.11h-26.59v14.65h31.07Z"></path>
    <path class="cls-3" d="M1446.29,635.27v53.12h-8.41l-30.38-35.97v35.97h-10.15v-53.12h8.42l30.37,35.97v-35.97h10.15Z"></path>
    <path class="cls-3" d="M1524.06,680.11v8.27h-41.31v-53.12h40.2v8.27h-29.96v13.81h26.59v8.11h-26.59v14.65h31.07Z"></path>
    <path class="cls-3" d="M1593.19,688.39l-11.26-15.55c-.71.08-1.41.08-2.12.08h-12.44v15.48h-10.23v-53.12h22.66c14.48,0,23.45,7.14,23.45,18.9,0,8.05-4.25,13.96-11.73,16.77l12.67,17.46h-11.01ZM1579.34,643.62h-11.96v21.17h11.96c8.97,0,13.61-3.95,13.61-10.62s-4.64-10.55-13.61-10.55Z"></path>
    <path class="cls-3" d="M1673.95,661.22h9.68v21.18c-5.74,4.48-13.77,6.75-21.55,6.75-17.08,0-29.66-11.46-29.66-27.31s12.58-27.32,29.82-27.32c9.19,0,16.91,2.96,22.1,8.65l-6.45,6.07c-4.33-4.18-9.28-6.07-15.18-6.07-11.73,0-19.98,7.66-19.98,18.67s8.25,18.66,19.9,18.66c3.92,0,7.78-.76,11.33-2.73v-16.55Z"></path>
    <path class="cls-3" d="M1742.52,669.64v18.75h-10.23v-18.59l-21.63-34.53h10.93l16.12,25.87,16.28-25.87h10.07l-21.55,34.38Z"></path>
    <path class="cls-3" d="M1318.85,509.86c4.79-4.79,9.29-9.76,13.69-14.93,11.3-13.4,21.83-26.9,31.69-40.49l-31.11-21.54c-9.09,12.73-18.48,24.89-28.34,36.47-3.64,4.31-7.28,8.33-11.1,12.25l-60.12-67.49c6.8-4.31,13.02-8.52,18.57-12.83,7.66-5.74,14.17-11.77,19.53-17.9,5.36-6.13,9.38-12.54,12.16-19.15,2.77-6.7,4.21-13.88,4.21-21.54,0-11.2-2.87-21.63-8.62-31.4-5.65-9.67-13.98-17.61-24.7-23.74-10.82-6.03-23.93-9.09-39.35-9.09s-27.95,2.78-39.25,8.33c-11.3,5.65-20.1,13.31-26.33,23.17-6.32,9.86-9.38,20.87-9.38,33.12,0,9.86,2.3,18.86,6.89,27.09,4.69,8.23,10.24,15.8,16.56,22.59,4.59,4.88,8.81,9.48,12.63,13.79-6.99,3.16-14.07,6.89-21.35,10.91-8.23,4.69-15.89,10.34-22.97,16.94-7.08,6.7-12.83,14.46-17.33,23.36-4.59,9-6.8,19.34-6.8,31.4,0,16.18,4.31,30.15,12.92,41.83,8.71,11.77,20.1,20.68,34.17,27,14.07,6.22,29.29,9.38,45.47,9.38,18.57,0,35.8-3.35,51.5-10.05,13.78-5.84,26.61-13.21,38.58-22.31l24.89,27.95h50.64l-47.39-53.13ZM1192.01,322.91c5.46-5.65,13.31-8.52,23.36-8.52,6.7,0,12.25,1.34,16.75,4.12,4.59,2.87,8.04,6.51,10.63,11.01,2.49,4.5,3.73,9.76,3.73,15.6,0,8.23-4.12,16.85-12.35,25.75-5.84,6.32-13.4,12.45-22.69,18.28-6.22-7.08-11.87-13.59-17.04-19.53-6.99-8.14-10.53-16.37-10.53-24.89s2.68-16.08,8.14-21.83ZM1240.93,521.45c-11.49,5.36-23.26,8.04-35.52,8.04-10.15,0-19.05-1.82-26.71-5.46-7.75-3.54-13.88-8.71-18.38-15.32-4.5-6.7-6.8-14.26-6.8-22.78,0-9.29,2.3-17.23,6.99-23.74,4.69-6.51,10.72-12.16,18.19-16.94,6.7-4.4,13.98-8.42,21.44-12.06l65.38,73.52c-8.04,5.94-16.18,10.91-24.6,14.74Z"></path>
  </g>
</svg>